<svg xmlns="http://www.w3.org/2000/svg" viewBox="0 0 191.82 191.82"><defs><style>.cls-1{fill:#231f20;}.cls-2{fill:none;stroke:#231f20;stroke-miterlimit:10;stroke-width:8px;}</style></defs><title>ReleaseHawk-Logo</title><g id="Layer_1" data-name="Layer 1"><path class="cls-1" d="M150.32,156.22c-4.65-6.95-32.45-91.92,16.15-71.64,0,0,12-34.8-25.75-49.8,0,0,4.05-12.65-40.06-12.6C74.5,22.21,35.4,42,37.46,71.68l9.87-.27c3.14-32.48,41-38.1,53.33-38.48,32.31-1,33.31,9.4,33.31,9.4,27.09,10.88,22.59,27.54,22.59,27.54-53.73-5.15-17.4,87.35-17.4,87.35"/><ellipse class="cls-1" cx="106.36" cy="50.63" rx="7.21" ry="5.7"/><polyline class="cls-1" points="42.26 81.86 58.4 65.72 47.64 65.72 36.88 64.72 26.12 64.72"/><path class="cls-1" d="M84.9,114.17a10.79,10.79,0,0,0-9.3,5.49v-.1c-5.65-.11-12.22-1.94-16.85-5.49a39.62,39.62,0,0,1-10.17-13.13,10.73,10.73,0,0,0-6.72-19.11c-6,0-10.77,3.85-10.77,9.82,0,3.82,2.08,8.34,5.39,10.26v35.3c-3.18,1.88-5.39,4.32-5.39,8.25a10.73,10.73,0,0,0,10.77,10.76c5.92,0,10.73-3.77,10.75-9.69a10.71,10.71,0,0,0-5.37-9.32V117.78a43.48,43.48,0,0,0,12.37,9.09,40.22,40.22,0,0,0,16,3.45v-.11a10.85,10.85,0,0,0,9.3,5.49,10.77,10.77,0,1,0,0-21.53ZM48.31,146.46a6.51,6.51,0,0,1-6.45,6.46c-3.5,0-6.46-4-6.46-7.46s3-5.46,6.46-5.46A6.55,6.55,0,0,1,48.31,146.46ZM41.86,99.11a6.46,6.46,0,1,1,6.45-6.46A6.51,6.51,0,0,1,41.86,99.11Zm43,32.28a6.46,6.46,0,1,1,6.46-6.45A6.5,6.5,0,0,1,84.9,131.39Z"/></g><g id="Layer_2" data-name="Layer 2"><circle class="cls-2" cx="95.91" cy="95.91" r="91.91"/></g></svg>